<mxfile host="Electron" modified="2024-06-09T23:24:31.572Z" agent="Mozilla/5.0 (Windows NT 10.0; Win64; x64) AppleWebKit/537.36 (KHTML, like Gecko) draw.io/24.5.1 Chrome/124.0.6367.207 Electron/30.0.6 Safari/537.36" etag="CZnbieR-5NR5qqB4D-Cs" version="24.5.1" type="device">
  <diagram name="Page-1" id="8378b5f6-a2b2-b727-a746-972ab9d02e00">
    <mxGraphModel dx="1793" dy="1045" grid="1" gridSize="10" guides="1" tooltips="1" connect="0" arrows="1" fold="1" page="1" pageScale="1.5" pageWidth="1169" pageHeight="827" background="none" math="0" shadow="0">
      <root>
        <mxCell id="0" />
        <mxCell id="1" parent="0" />
        <mxCell id="63" value="1" style="strokeColor=#DEEDFF;fillColor=#ADC3D9" parent="1" vertex="1">
          <mxGeometry x="46.5" y="420" width="40" height="20" as="geometry" />
        </mxCell>
        <mxCell id="64" value="Complete project execution" style="align=left;strokeColor=#DEEDFF;fillColor=#ADC3D9" parent="1" vertex="1">
          <mxGeometry x="86.5" y="420" width="360" height="20" as="geometry" />
        </mxCell>
        <mxCell id="65" value="" style="strokeColor=#DEEDFF;fillColor=#ADC3D9" parent="1" vertex="1">
          <mxGeometry x="446.50000000000176" y="420" width="80.00000000000028" height="20" as="geometry" />
        </mxCell>
        <mxCell id="69" value="2" style="strokeColor=#DEEDFF;fillColor=#CCE5FF" parent="1" vertex="1">
          <mxGeometry x="46.500000000000256" y="439.9999999999999" width="40" height="20" as="geometry" />
        </mxCell>
        <mxCell id="70" value="admin-user-interfaces" style="align=left;strokeColor=#DEEDFF;fillColor=#CCE5FF" parent="1" vertex="1">
          <mxGeometry x="86.50000000000026" y="439.9999999999999" width="359.9999999999998" height="20" as="geometry" />
        </mxCell>
        <mxCell id="71" value="SP, SC" style="strokeColor=#DEEDFF;fillColor=#CCE5FF" parent="1" vertex="1">
          <mxGeometry x="446.500000000002" y="439.99999999999983" width="80.00000000000028" height="20" as="geometry" />
        </mxCell>
        <mxCell id="74" value="3" style="strokeColor=#DEEDFF" parent="1" vertex="1">
          <mxGeometry x="46.50000000000027" y="459.9999999999998" width="40" height="20" as="geometry" />
        </mxCell>
        <mxCell id="75" value="0.1 Groundwork – database setup, accounts, and home page " style="align=left;strokeColor=#DEEDFF" parent="1" vertex="1">
          <mxGeometry x="86.50000000000027" y="459.9999999999998" width="359.9999999999997" height="20.000000000000014" as="geometry" />
        </mxCell>
        <mxCell id="76" value="SP, SC" style="strokeColor=#DEEDFF" parent="1" vertex="1">
          <mxGeometry x="446.500000000002" y="459.9999999999997" width="80.00000000000028" height="20" as="geometry" />
        </mxCell>
        <mxCell id="79" value="4" style="strokeColor=#DEEDFF" parent="1" vertex="1">
          <mxGeometry x="46.5" y="480.00000000000017" width="40" height="20" as="geometry" />
        </mxCell>
        <mxCell id="80" value="0.2 User Menu – Basic navbar plus Catalog and Profile views " style="align=left;strokeColor=#DEEDFF" parent="1" vertex="1">
          <mxGeometry x="86.5" y="480.00000000000017" width="360" height="20" as="geometry" />
        </mxCell>
        <mxCell id="81" value="SP, SC" style="strokeColor=#DEEDFF" parent="1" vertex="1">
          <mxGeometry x="446.5000000000017" y="480.0000000000001" width="80.00000000000028" height="20" as="geometry" />
        </mxCell>
        <mxCell id="84" value="5" style="strokeColor=#DEEDFF" parent="1" vertex="1">
          <mxGeometry x="46.499999999999915" y="500.00000000000017" width="40" height="20" as="geometry" />
        </mxCell>
        <mxCell id="85" value="0.3 Login and Create account styling, Cart view " style="align=left;strokeColor=#DEEDFF" parent="1" vertex="1">
          <mxGeometry x="86.49999999999991" y="500.00000000000017" width="360.0000000000001" height="20" as="geometry" />
        </mxCell>
        <mxCell id="86" value="SP, SC" style="strokeColor=#DEEDFF" parent="1" vertex="1">
          <mxGeometry x="446.50000000000165" y="500.0000000000001" width="80.00000000000028" height="20" as="geometry" />
        </mxCell>
        <mxCell id="89" value="6" style="strokeColor=#DEEDFF" parent="1" vertex="1">
          <mxGeometry x="46.4999999999999" y="520.0000000000005" width="40" height="20" as="geometry" />
        </mxCell>
        <mxCell id="90" value="0.4 Cart summary, place orders, and rough Orders view " style="align=left;strokeColor=#DEEDFF" parent="1" vertex="1">
          <mxGeometry x="86.4999999999999" y="520.0000000000005" width="360.0000000000001" height="20" as="geometry" />
        </mxCell>
        <mxCell id="91" value="SP, SC" style="strokeColor=#DEEDFF" parent="1" vertex="1">
          <mxGeometry x="446.50000000000165" y="520.0000000000003" width="80.00000000000028" height="20" as="geometry" />
        </mxCell>
        <mxCell id="94" value="7" style="strokeColor=#DEEDFF" parent="1" vertex="1">
          <mxGeometry x="46.500000000000625" y="540.0000000000007" width="40" height="20" as="geometry" />
        </mxCell>
        <mxCell id="95" value="0.5 Completed Admin menus, various bug fixes, completed Orders view " style="align=left;strokeColor=#DEEDFF" parent="1" vertex="1">
          <mxGeometry x="86.50000000000063" y="540.0000000000007" width="359.9999999999994" height="20" as="geometry" />
        </mxCell>
        <mxCell id="96" value="SP, SC" style="strokeColor=#DEEDFF" parent="1" vertex="1">
          <mxGeometry x="446.5000000000024" y="540.0000000000007" width="80.00000000000028" height="20" as="geometry" />
        </mxCell>
        <mxCell id="99" value="8" style="strokeColor=#DEEDFF" parent="1" vertex="1">
          <mxGeometry x="46.50000000000064" y="560.0000000000006" width="40" height="20" as="geometry" />
        </mxCell>
        <mxCell id="100" value="1.0 First Release and ongain dev on main branch" style="align=left;strokeColor=#DEEDFF" parent="1" vertex="1">
          <mxGeometry x="86.50000000000064" y="560.0000000000006" width="359.9999999999994" height="20" as="geometry" />
        </mxCell>
        <mxCell id="101" value="SP, SC" style="strokeColor=#DEEDFF" parent="1" vertex="1">
          <mxGeometry x="446.5000000000024" y="560.0000000000006" width="80.00000000000028" height="20" as="geometry" />
        </mxCell>
        <mxCell id="200" value="" style="strokeColor=#DEEDFF" parent="1" vertex="1">
          <mxGeometry x="526.500000000002" y="420.0000000000075" width="20" height="160" as="geometry" />
        </mxCell>
        <mxCell id="201" value="" style="strokeColor=#DEEDFF" parent="1" vertex="1">
          <mxGeometry x="546.5000000000016" y="420.0000000000075" width="20" height="160" as="geometry" />
        </mxCell>
        <mxCell id="202" value="" style="strokeColor=#DEEDFF" parent="1" vertex="1">
          <mxGeometry x="566.5000000000016" y="420.00000000001114" width="20" height="160" as="geometry" />
        </mxCell>
        <mxCell id="203" value="" style="strokeColor=#DEEDFF" parent="1" vertex="1">
          <mxGeometry x="586.5000000000016" y="420.00000000001114" width="20" height="160" as="geometry" />
        </mxCell>
        <mxCell id="204" value="" style="strokeColor=#DEEDFF" parent="1" vertex="1">
          <mxGeometry x="606.5000000000016" y="420.00000000001114" width="20" height="160" as="geometry" />
        </mxCell>
        <mxCell id="205" value="" style="strokeColor=#DEEDFF;fillColor=#D4E1FF" parent="1" vertex="1">
          <mxGeometry x="626.5000000000018" y="420.00000000001114" width="20" height="160" as="geometry" />
        </mxCell>
        <mxCell id="206" value="" style="strokeColor=#DEEDFF;fillColor=#D4E1FF" parent="1" vertex="1">
          <mxGeometry x="646.5000000000018" y="420.0000000000148" width="20" height="160" as="geometry" />
        </mxCell>
        <mxCell id="207" value="" style="strokeColor=#DEEDFF" parent="1" vertex="1">
          <mxGeometry x="666.5000000000018" y="420.0000000000148" width="20" height="160" as="geometry" />
        </mxCell>
        <mxCell id="208" value="" style="strokeColor=#DEEDFF" parent="1" vertex="1">
          <mxGeometry x="686.5000000000018" y="420.0000000000148" width="20" height="160" as="geometry" />
        </mxCell>
        <mxCell id="209" value="" style="strokeColor=#DEEDFF" parent="1" vertex="1">
          <mxGeometry x="706.5000000000018" y="420.0000000000002" width="20" height="160" as="geometry" />
        </mxCell>
        <mxCell id="210" value="" style="strokeColor=#DEEDFF" parent="1" vertex="1">
          <mxGeometry x="726.5000000000018" y="420.00000000000387" width="20" height="160" as="geometry" />
        </mxCell>
        <mxCell id="211" value="" style="strokeColor=#DEEDFF" parent="1" vertex="1">
          <mxGeometry x="746.5000000000018" y="420.00000000000387" width="20" height="160" as="geometry" />
        </mxCell>
        <mxCell id="212" value="" style="strokeColor=#DEEDFF;fillColor=#D4E1FF" parent="1" vertex="1">
          <mxGeometry x="766.5000000000018" y="420.00000000000387" width="20" height="160" as="geometry" />
        </mxCell>
        <mxCell id="213" value="" style="strokeColor=#DEEDFF;fillColor=#D4E1FF" parent="1" vertex="1">
          <mxGeometry x="786.5000000000018" y="420.0000000000148" width="20" height="160" as="geometry" />
        </mxCell>
        <mxCell id="214" value="" style="strokeColor=#DEEDFF" parent="1" vertex="1">
          <mxGeometry x="806.5000000000018" y="420.0000000000184" width="20" height="160" as="geometry" />
        </mxCell>
        <mxCell id="215" value="" style="strokeColor=#DEEDFF" parent="1" vertex="1">
          <mxGeometry x="826.5000000000018" y="420.0000000000184" width="20" height="160" as="geometry" />
        </mxCell>
        <mxCell id="216" value="" style="strokeColor=#DEEDFF" parent="1" vertex="1">
          <mxGeometry x="846.5000000000018" y="420.0000000000184" width="20" height="160" as="geometry" />
        </mxCell>
        <mxCell id="217" value="" style="strokeColor=#DEEDFF" parent="1" vertex="1">
          <mxGeometry x="866.500000000002" y="420.0000000000184" width="20" height="160" as="geometry" />
        </mxCell>
        <mxCell id="218" value="" style="strokeColor=#DEEDFF" parent="1" vertex="1">
          <mxGeometry x="886.500000000002" y="420.00000000002206" width="20" height="160" as="geometry" />
        </mxCell>
        <mxCell id="219" value="" style="strokeColor=#DEEDFF;fillColor=#D4E1FF" parent="1" vertex="1">
          <mxGeometry x="906.500000000002" y="420.00000000002206" width="20" height="160" as="geometry" />
        </mxCell>
        <mxCell id="220" value="" style="strokeColor=#DEEDFF;fillColor=#D4E1FF" parent="1" vertex="1">
          <mxGeometry x="926.500000000002" y="420.00000000002206" width="20" height="160" as="geometry" />
        </mxCell>
        <mxCell id="2" value="Task Name" style="fillColor=#23445D;strokeColor=#FFFFFF;strokeWidth=2;fontColor=#FFFFFF;fontStyle=1" parent="1" vertex="1">
          <mxGeometry x="86.5" y="380" width="360" height="40" as="geometry" />
        </mxCell>
        <mxCell id="3" value="" style="fillColor=#23445D;strokeColor=#FFFFFF;strokeWidth=2;fontColor=#FFFFFF;fontStyle=1" parent="1" vertex="1">
          <mxGeometry x="46.5" y="380" width="40" height="40" as="geometry" />
        </mxCell>
        <mxCell id="12" value="Developer" style="fillColor=#23445D;strokeColor=#FFFFFF;strokeWidth=2;fontColor=#FFFFFF;fontStyle=1" parent="1" vertex="1">
          <mxGeometry x="446.50000000000176" y="380.00000000000006" width="80.00000000000006" height="40.00000000000001" as="geometry" />
        </mxCell>
        <mxCell id="15" value="May 14" style="fillColor=#23445D;strokeColor=#FFFFFF;strokeWidth=2;fontColor=#FFFFFF;fontStyle=1" parent="1" vertex="1">
          <mxGeometry x="526.5000000000018" y="380.0000000000001" width="140" height="20" as="geometry" />
        </mxCell>
        <mxCell id="16" value="M" style="fillColor=#23445D;strokeColor=#FFFFFF;strokeWidth=2;fontColor=#FFFFFF;fontStyle=1" parent="1" vertex="1">
          <mxGeometry x="526.5000000000018" y="400.0000000000001" width="20" height="20" as="geometry" />
        </mxCell>
        <mxCell id="17" value="T" style="fillColor=#23445D;strokeColor=#FFFFFF;strokeWidth=2;fontColor=#FFFFFF;fontStyle=1" parent="1" vertex="1">
          <mxGeometry x="546.5000000000018" y="400.0000000000001" width="20" height="20" as="geometry" />
        </mxCell>
        <mxCell id="18" value="W" style="fillColor=#23445D;strokeColor=#FFFFFF;strokeWidth=2;fontColor=#FFFFFF;fontStyle=1" parent="1" vertex="1">
          <mxGeometry x="566.5000000000018" y="400.0000000000001" width="20" height="20" as="geometry" />
        </mxCell>
        <mxCell id="19" value="T" style="fillColor=#23445D;strokeColor=#FFFFFF;strokeWidth=2;fontColor=#FFFFFF;fontStyle=1" parent="1" vertex="1">
          <mxGeometry x="586.5000000000018" y="400.0000000000001" width="20" height="20" as="geometry" />
        </mxCell>
        <mxCell id="20" value="F" style="fillColor=#23445D;strokeColor=#FFFFFF;strokeWidth=2;fontColor=#FFFFFF;fontStyle=1" parent="1" vertex="1">
          <mxGeometry x="606.5000000000016" y="400.0000000000001" width="20" height="20" as="geometry" />
        </mxCell>
        <mxCell id="21" value="S" style="fillColor=#23445D;strokeColor=#FFFFFF;strokeWidth=2;fontColor=#FFFFFF;fontStyle=1" parent="1" vertex="1">
          <mxGeometry x="626.5000000000016" y="400.0000000000001" width="20" height="20" as="geometry" />
        </mxCell>
        <mxCell id="22" value="S" style="fillColor=#23445D;strokeColor=#FFFFFF;strokeWidth=2;fontColor=#FFFFFF;fontStyle=1" parent="1" vertex="1">
          <mxGeometry x="646.5000000000016" y="400.0000000000001" width="20" height="20" as="geometry" />
        </mxCell>
        <mxCell id="23" value="May 20" style="fillColor=#23445D;strokeColor=#FFFFFF;strokeWidth=2;fontColor=#FFFFFF;fontStyle=1" parent="1" vertex="1">
          <mxGeometry x="666.5000000000018" y="380.00000000000006" width="140" height="20" as="geometry" />
        </mxCell>
        <mxCell id="24" value="M" style="fillColor=#23445D;strokeColor=#FFFFFF;strokeWidth=2;fontColor=#FFFFFF;fontStyle=1" parent="1" vertex="1">
          <mxGeometry x="666.5000000000018" y="400.00000000000006" width="20" height="20" as="geometry" />
        </mxCell>
        <mxCell id="25" value="T" style="fillColor=#23445D;strokeColor=#FFFFFF;strokeWidth=2;fontColor=#FFFFFF;fontStyle=1" parent="1" vertex="1">
          <mxGeometry x="686.5000000000018" y="400.00000000000006" width="20" height="20" as="geometry" />
        </mxCell>
        <mxCell id="26" value="W" style="fillColor=#23445D;strokeColor=#FFFFFF;strokeWidth=2;fontColor=#FFFFFF;fontStyle=1" parent="1" vertex="1">
          <mxGeometry x="706.5000000000018" y="400.00000000000006" width="20" height="20" as="geometry" />
        </mxCell>
        <mxCell id="27" value="T" style="fillColor=#23445D;strokeColor=#FFFFFF;strokeWidth=2;fontColor=#FFFFFF;fontStyle=1" parent="1" vertex="1">
          <mxGeometry x="726.5000000000018" y="400.00000000000006" width="20" height="20" as="geometry" />
        </mxCell>
        <mxCell id="28" value="F" style="fillColor=#23445D;strokeColor=#FFFFFF;strokeWidth=2;fontColor=#FFFFFF;fontStyle=1" parent="1" vertex="1">
          <mxGeometry x="746.5000000000016" y="400.00000000000006" width="20" height="20" as="geometry" />
        </mxCell>
        <mxCell id="29" value="S" style="fillColor=#23445D;strokeColor=#FFFFFF;strokeWidth=2;fontColor=#FFFFFF;fontStyle=1" parent="1" vertex="1">
          <mxGeometry x="766.5000000000016" y="400.00000000000006" width="20" height="20" as="geometry" />
        </mxCell>
        <mxCell id="30" value="S" style="fillColor=#23445D;strokeColor=#FFFFFF;strokeWidth=2;fontColor=#FFFFFF;fontStyle=1" parent="1" vertex="1">
          <mxGeometry x="786.5000000000016" y="400.00000000000006" width="20" height="20" as="geometry" />
        </mxCell>
        <mxCell id="31" value="May 27" style="fillColor=#23445D;strokeColor=#FFFFFF;strokeWidth=2;fontColor=#FFFFFF;fontStyle=1" parent="1" vertex="1">
          <mxGeometry x="806.5000000000018" y="380.00000000000006" width="140" height="20" as="geometry" />
        </mxCell>
        <mxCell id="32" value="M" style="fillColor=#23445D;strokeColor=#FFFFFF;strokeWidth=2;fontColor=#FFFFFF;fontStyle=1" parent="1" vertex="1">
          <mxGeometry x="806.5000000000018" y="400.00000000000006" width="20" height="20" as="geometry" />
        </mxCell>
        <mxCell id="33" value="T" style="fillColor=#23445D;strokeColor=#FFFFFF;strokeWidth=2;fontColor=#FFFFFF;fontStyle=1" parent="1" vertex="1">
          <mxGeometry x="826.5000000000018" y="400.00000000000006" width="20" height="20" as="geometry" />
        </mxCell>
        <mxCell id="34" value="W" style="fillColor=#23445D;strokeColor=#FFFFFF;strokeWidth=2;fontColor=#FFFFFF;fontStyle=1" parent="1" vertex="1">
          <mxGeometry x="846.5000000000018" y="400.00000000000006" width="20" height="20" as="geometry" />
        </mxCell>
        <mxCell id="35" value="T" style="fillColor=#23445D;strokeColor=#FFFFFF;strokeWidth=2;fontColor=#FFFFFF;fontStyle=1" parent="1" vertex="1">
          <mxGeometry x="866.5000000000018" y="400.00000000000006" width="20" height="20" as="geometry" />
        </mxCell>
        <mxCell id="36" value="F" style="fillColor=#23445D;strokeColor=#FFFFFF;strokeWidth=2;fontColor=#FFFFFF;fontStyle=1" parent="1" vertex="1">
          <mxGeometry x="886.5000000000016" y="400" width="20" height="20" as="geometry" />
        </mxCell>
        <mxCell id="37" value="S" style="fillColor=#23445D;strokeColor=#FFFFFF;strokeWidth=2;fontColor=#FFFFFF;fontStyle=1" parent="1" vertex="1">
          <mxGeometry x="906.5000000000016" y="400" width="20" height="20" as="geometry" />
        </mxCell>
        <mxCell id="38" value="S" style="fillColor=#23445D;strokeColor=#FFFFFF;strokeWidth=2;fontColor=#FFFFFF;fontStyle=1" parent="1" vertex="1">
          <mxGeometry x="926.5000000000016" y="400" width="20" height="20" as="geometry" />
        </mxCell>
        <mxCell id="Jeid9guDCt3J0gndHfBI-499" value="" style="strokeColor=#DEEDFF" parent="1" vertex="1">
          <mxGeometry x="946.500000000002" y="420.00000000002206" width="20" height="160" as="geometry" />
        </mxCell>
        <mxCell id="Jeid9guDCt3J0gndHfBI-500" value="" style="strokeColor=#DEEDFF" parent="1" vertex="1">
          <mxGeometry x="966.500000000002" y="420.0000000000257" width="20" height="160" as="geometry" />
        </mxCell>
        <mxCell id="Jeid9guDCt3J0gndHfBI-501" value="" style="strokeColor=#DEEDFF" parent="1" vertex="1">
          <mxGeometry x="986.500000000002" y="420.0000000000257" width="20" height="160" as="geometry" />
        </mxCell>
        <mxCell id="Jeid9guDCt3J0gndHfBI-502" value="" style="strokeColor=#DEEDFF" parent="1" vertex="1">
          <mxGeometry x="1006.500000000002" y="420.0000000000257" width="20" height="160" as="geometry" />
        </mxCell>
        <mxCell id="Jeid9guDCt3J0gndHfBI-503" value="" style="strokeColor=#DEEDFF" parent="1" vertex="1">
          <mxGeometry x="1026.5000000000016" y="420.0000000000257" width="20" height="160" as="geometry" />
        </mxCell>
        <mxCell id="Jeid9guDCt3J0gndHfBI-504" value="" style="strokeColor=#DEEDFF;fillColor=#D4E1FF" parent="1" vertex="1">
          <mxGeometry x="1046.5000000000016" y="420.00000000002933" width="20" height="160" as="geometry" />
        </mxCell>
        <mxCell id="Jeid9guDCt3J0gndHfBI-505" value="" style="strokeColor=#DEEDFF;fillColor=#D4E1FF" parent="1" vertex="1">
          <mxGeometry x="1066.5000000000016" y="420.00000000002933" width="20" height="160" as="geometry" />
        </mxCell>
        <mxCell id="Jeid9guDCt3J0gndHfBI-506" value="June 3" style="fillColor=#23445D;strokeColor=#FFFFFF;strokeWidth=2;fontColor=#FFFFFF;fontStyle=1" parent="1" vertex="1">
          <mxGeometry x="946.5000000000018" y="380.00000000000006" width="140" height="20" as="geometry" />
        </mxCell>
        <mxCell id="Jeid9guDCt3J0gndHfBI-507" value="M" style="fillColor=#23445D;strokeColor=#FFFFFF;strokeWidth=2;fontColor=#FFFFFF;fontStyle=1" parent="1" vertex="1">
          <mxGeometry x="946.5000000000018" y="400.00000000000006" width="20" height="20" as="geometry" />
        </mxCell>
        <mxCell id="Jeid9guDCt3J0gndHfBI-508" value="T" style="fillColor=#23445D;strokeColor=#FFFFFF;strokeWidth=2;fontColor=#FFFFFF;fontStyle=1" parent="1" vertex="1">
          <mxGeometry x="966.5000000000018" y="400.00000000000006" width="20" height="20" as="geometry" />
        </mxCell>
        <mxCell id="Jeid9guDCt3J0gndHfBI-509" value="W" style="fillColor=#23445D;strokeColor=#FFFFFF;strokeWidth=2;fontColor=#FFFFFF;fontStyle=1" parent="1" vertex="1">
          <mxGeometry x="986.5000000000018" y="400.00000000000006" width="20" height="20" as="geometry" />
        </mxCell>
        <mxCell id="Jeid9guDCt3J0gndHfBI-510" value="T" style="fillColor=#23445D;strokeColor=#FFFFFF;strokeWidth=2;fontColor=#FFFFFF;fontStyle=1" parent="1" vertex="1">
          <mxGeometry x="1006.5000000000018" y="400.00000000000006" width="20" height="20" as="geometry" />
        </mxCell>
        <mxCell id="Jeid9guDCt3J0gndHfBI-511" value="F" style="fillColor=#23445D;strokeColor=#FFFFFF;strokeWidth=2;fontColor=#FFFFFF;fontStyle=1" parent="1" vertex="1">
          <mxGeometry x="1026.5000000000016" y="400" width="20" height="20" as="geometry" />
        </mxCell>
        <mxCell id="Jeid9guDCt3J0gndHfBI-512" value="S" style="fillColor=#23445D;strokeColor=#FFFFFF;strokeWidth=2;fontColor=#FFFFFF;fontStyle=1" parent="1" vertex="1">
          <mxGeometry x="1046.5000000000016" y="400" width="20" height="20" as="geometry" />
        </mxCell>
        <mxCell id="Jeid9guDCt3J0gndHfBI-513" value="S" style="fillColor=#23445D;strokeColor=#FFFFFF;strokeWidth=2;fontColor=#FFFFFF;fontStyle=1" parent="1" vertex="1">
          <mxGeometry x="1066.5000000000016" y="400" width="20" height="20" as="geometry" />
        </mxCell>
        <mxCell id="254" value="" style="shape=mxgraph.flowchart.process;fillColor=#AE4132;strokeColor=#000000;strokeWidth=2;opacity=100" parent="1" vertex="1">
          <mxGeometry x="528" y="420" width="557" height="20" as="geometry" />
        </mxCell>
        <mxCell id="uVJO5Seux2hrpMJE8Qfh-277" value="" style="shape=mxgraph.flowchart.process;fillColor=#9933FF;strokeColor=default;strokeWidth=2;opacity=75" parent="1" vertex="1">
          <mxGeometry x="526.5" y="460" width="273.5" height="20" as="geometry" />
        </mxCell>
        <mxCell id="uVJO5Seux2hrpMJE8Qfh-279" value="" style="shape=mxgraph.flowchart.process;fillColor=#9933FF;strokeColor=default;strokeWidth=2;opacity=75" parent="1" vertex="1">
          <mxGeometry x="650" y="480" width="150" height="20" as="geometry" />
        </mxCell>
        <mxCell id="uVJO5Seux2hrpMJE8Qfh-280" value="" style="shape=mxgraph.flowchart.process;fillColor=#9933FF;strokeColor=default;strokeWidth=2;opacity=75" parent="1" vertex="1">
          <mxGeometry x="790" y="500" width="40" height="20" as="geometry" />
        </mxCell>
        <mxCell id="uVJO5Seux2hrpMJE8Qfh-281" value="" style="shape=mxgraph.flowchart.process;fillColor=#9933FF;strokeColor=default;strokeWidth=2;opacity=75" parent="1" vertex="1">
          <mxGeometry x="830" y="520" width="90" height="20" as="geometry" />
        </mxCell>
        <mxCell id="uVJO5Seux2hrpMJE8Qfh-283" value="" style="shape=mxgraph.flowchart.process;fillColor=#9933FF;strokeColor=default;strokeWidth=2;opacity=75" parent="1" vertex="1">
          <mxGeometry x="920" y="540" width="60" height="20" as="geometry" />
        </mxCell>
        <mxCell id="uVJO5Seux2hrpMJE8Qfh-284" value="" style="shape=mxgraph.flowchart.process;fillColor=#9933FF;strokeColor=default;strokeWidth=2;opacity=75" parent="1" vertex="1">
          <mxGeometry x="980" y="560" width="110" height="20" as="geometry" />
        </mxCell>
      </root>
    </mxGraphModel>
  </diagram>
</mxfile>
